<svg width="128" height="128" viewBox="0 0 128 128" fill="none" xmlns="http://www.w3.org/2000/svg">
  <rect width="128" height="128" rx="24" fill="#3B82F6"/>
  <path d="M64 30C45.2223 30 30 45.2223 30 64C30 82.7777 45.2223 98 64 98C82.7777 98 98 82.7777 98 64C98 45.2223 82.7777 30 64 30ZM64 90C49.6406 90 38 78.3594 38 64C38 49.6406 49.6406 38 64 38C78.3594 38 90 49.6406 90 64C90 78.3594 78.3594 90 64 90Z" fill="white"/>
  <circle cx="64" cy="64" r="10" fill="white"/>
  <path d="M64 45V55" stroke="white" stroke-width="4" stroke-linecap="round"/>
  <path d="M64 73V83" stroke="white" stroke-width="4" stroke-linecap="round"/>
  <path d="M45 64H55" stroke="white" stroke-width="4" stroke-linecap="round"/>
  <path d="M73 64H83" stroke="white" stroke-width="4" stroke-linecap="round"/>
</svg>
